# xmcd
#
# Track frame offsets:
#	150
#	14967
#	31323
#	49314
#	78648
#	100677
#	124781
#	136782
#	167823
#	187817
#	215944
#
# Disc length: 3339 seconds
# Revision: 2
# Processed by: cddbd v1.5.2PL0 Copyright (c) Steve Scherf et al.
# Submitted via: dBpowerAMP V12.0
#
DISCID=9b0d090b
DTITLE=BuiltToSpill,Boise,ID - There Is No Enemy
DYEAR=2009
DGENRE=Indie
TTITLE0=Aisie 13
TTITLE1=Hindsight
TTITLE2=Nowhere Lullaby
TTITLE3=Good Ol' Boredom
TTITLE4=Life's A Dream
TTITLE5=Oh Yeah
TTITLE6=Pat
TTITLE7=Done
TTITLE8=Planting Seeds
TTITLE9=Things Fall Apart
TTITLE10=Tomorrow
EXTD=
EXTT0=
EXTT1=
EXTT2=
EXTT3=
EXTT4=
EXTT5=
EXTT6=
EXTT7=
EXTT8=
EXTT9=
EXTT10=
PLAYORDER=
